.
 
http://www.scenetime.com    -   SceneTime [ We been having it ] !!!


How come you press harder on a remote control when you know the battery is dead? so you better seed to get speed ;)

        Seed back for speed


...................................NFO:.................................................General
Complete name                    : C:\Users\coop\Desktop\The.Witches.of.Oz.2011.R5.Dvd.Rip.Xvid.TCM.Part.One\t.w.o.t.c.m.pt1.avi
Format                           : AVI
Format/Info                      : Audio Video Interleave
File size                        : 700 MiB
Duration                         : 1h 25mn
Overall bit rate                 : 1 147 Kbps
Movie name                       : t.w.o.t.c.m.pt1
Encoded by                       : Cooperman
Writing application              : VirtualDubMod 1.5.4.1 (build 2178/release)
Copyright                        : TCM

Video
ID                               : 0
Format                           : MPEG-4 Visual
Format profile                   : Advanced Simple@L5
Format settings, BVOP            : 1
Format settings, QPel            : No
Format settings, GMC             : No warppoints
Format settings, Matrix          : Custom
Codec ID                         : XVID
Codec ID/Hint                    : XviD
Duration                         : 1h 25mn
Bit rate                         : 1 028 Kbps
Width                            : 640 pixels
Height                           : 368 pixels
Display aspect ratio             : 16:9
Frame rate                       : 23.976 fps
Color space                      : YUV
Chroma subsampling               : 4:2:0
Bit depth                        : 8 bits
Scan type                        : Progressive
Compression mode                 : Lossy
Bits/(Pixel*Frame)               : 0.182
Stream size                      : 627 MiB (90%)
Writing library                  : XviD 64

Audio
ID                               : 1
Format                           : MPEG Audio
Format version                   : Version 1
Format profile                   : Layer 3
Mode                             : Joint stereo
Codec ID                         : 55
Codec ID/Hint                    : MP3
Duration                         : 1h 25mn
Bit rate mode                    : Constant
Bit rate                         : 112 Kbps
Channel(s)                       : 2 channels
Sampling rate                    : 44.1 KHz
Compression mode                 : Lossy
Stream size                      : 68.3 MiB (10%)
Alignment                        : Split accross interleaves
Interleave, duration             : 83 ms (2.00 video frames)
Interleave, preload duration     : 500 ms
Writing library                  : LAME3.98r
Encoding settings                : -m j -V 4 -q 2 -lowpass 15.6 -b 112
Language                         : un / English
Subs                             : No
Sample                           : Yes

source file : The.Witches.of.Oz.2011.R5.PAL.DVDR-TDP
THANX TDP :)
50X14.mb rars[main movie avi]
sample[avi]
snaps.n.thumbs
sfv
nfo
Enjoy the movie!
t.c.m@hushmail.com

The.Witches.of.Oz.2011.R5.Dvd.Rip.Xvid.TCM.Part.2 comeing soon! ;)